# xmcd
#
# Track frame offsets:
#       150
#       129813
#       144464
#       156837
#       172532
#       185914
#       200998
#       214851
#       228276
#       242213
#       255895
#       266677
#       281541
#       297077
#       309309
#
# Disc length: 4307 seconds
#
# Revision: 1
# Processed by: cddbd v1.5.2PL0 Copyright (c) Steve Scherf et al.
# Submitted via: FreeDbEdit v0.1
#
DISCID=d610d10f
DTITLE=Various Artist - Jazz Greats
DYEAR=1994
DGENRE=Jazz
TTITLE0=Data
TTITLE1=Jelly Roll Morton - Black Bottom Stomp
TTITLE2=James P.johnson - Carolina Shout
TTITLE3=Bessie Smith - Down Hearted Blues
TTITLE4=Duke Ellington - Take the "A" Train
TTITLE5=Louis Armstrong - West End Blues
TTITLE6=Coleman Hawkins - Body and Soul
TTITLE7=Johnny Hodges - Jeep's Blues
TTITLE8=Count Basie - One O'Clock Jump
TTITLE9=Fats Waller - Ain't Misbehavin'
TTITLE10=Bennie Goodman and Charlie Christian - Breakfast Feud
TTITLE11=Count Basie and Lester Young - Lester Leaps In
TTITLE12=Art Tatum - Tea for Two
TTITLE13=Billie Holiday - He's Funny That Way
TTITLE14=Gene Krupe/Roy Eldridge - Rockin' Chair
EXTD=YEAR: 1994
EXTT0=
EXTT1=
EXTT2=
EXTT3=
EXTT4=
EXTT5=
EXTT6=
EXTT7=
EXTT8=
EXTT9=
EXTT10=
EXTT11=
EXTT12=
EXTT13=
EXTT14=
PLAYORDER=
